# xmcd CD database file
#
# Track frame offsets:
#	150
#	20628
#	44551
#
# Disc length: 868 seconds
#
# Revision: 0
# Processed by: cddbd v1.4PL0 Copyright (c) Steve Scherf et al.
# Submitted via: CDex 1.40Release
#
DISCID=22036203
DTITLE=Dennis Locorriere - Sylvia's Mother
DYEAR=1900
DGENRE=Country
TTITLE0=Sylvia's Mother
TTITLE1=The Ballad Of Lucy Jordan
TTITLE2=I Think I'm In Love
EXTD=ID3G: 2
EXTT0=
EXTT1=
EXTT2=
PLAYORDER=
